<?xml version="1.0" ?>
<!-- Uploaded to: SVG Repo, www.svgrepo.com, Generator: SVG Repo Mixer Tools -->
<svg width="800px" height="800px" viewBox="0 0 64 64" xmlns="http://www.w3.org/2000/svg">
<defs>
<style>.cls-1{fill:none;stroke:#000000;stroke-linejoin:round;stroke-width:2px;}</style>
</defs>
<title/>
<g data-name="Layer 10" id="Layer_10">
<path class="cls-1" d="M50,36A22,22,0,0,1,6,36"/>
<path class="cls-1" d="M54,36A26,26,0,0,1,2,36Z"/>
<circle class="cls-1" cx="13" cy="41" r="1"/>
<circle class="cls-1" cx="21" cy="51" r="1"/>
<circle class="cls-1" cx="28" cy="41" r="1"/>
<circle class="cls-1" cx="35" cy="51" r="1"/>
<circle class="cls-1" cx="43" cy="41" r="1"/>
<path class="cls-1" d="M28.75,36A17,17,0,1,1,52,46.5"/>
<path class="cls-1" d="M45,14V10.24A10.25,10.25,0,0,1,48,3h0"/>
<path class="cls-1" d="M43,4h0a6.84,6.84,0,0,1,2,4.83V10H43.83A6.84,6.84,0,0,1,39,8h0a6.84,6.84,0,0,1-2-4.83V2h1.17A6.84,6.84,0,0,1,43,4Z"/>
<path class="cls-1" d="M45,18A13,13,0,0,1,58,31"/>
<circle class="cls-1" cx="15" cy="15" r="13"/>
<circle class="cls-1" cx="15" cy="15" r="9"/>
<line class="cls-1" x1="15" x2="15" y1="6" y2="24"/>
<line class="cls-1" x1="6" x2="24" y1="15" y2="15"/>
<line class="cls-1" x1="9" x2="21" y1="21" y2="9"/>
<line class="cls-1" x1="9" x2="21" y1="9" y2="21"/>
</g>
</svg>